# xmcd CD database file
#
# Track frame offsets:
#	150
#	17504
#	36444
#	53231
#	71691
#	89300
#	106180
#	124753
#	142556
#	162835
#
# Disc length: 2374 seconds
#
# Revision: 0
# Processed by: cddbd v1.5.1PL0 Copyright (c) Steve Scherf et al.
# Submitted via: CDex 1.50
#
DISCID=7909440a
DTITLE=Clarence "Tex" Texada - Curiosity
DYEAR=2004
DGENRE=Jazz
TTITLE0=Curiosity
TTITLE1=Tonight's the night (featuring Shawn Belton)
TTITLE2=I Don't Wanna Wait
TTITLE3=Don't Forget Me
TTITLE4=Kemmy's Lullaby
TTITLE5=Late Night
TTITLE6=Janell (featuring Adolphus Hall Jr.)
TTITLE7=Swept Away
TTITLE8=My Own Love
TTITLE9=Tick Tock
EXTD=YEAR: 2004
EXTT0=
EXTT1=
EXTT2=
EXTT3=
EXTT4=
EXTT5=
EXTT6=
EXTT7=
EXTT8=
EXTT9=
PLAYORDER=
